REM DIRINDEX 1\6,1\2\7,1\2\8,1\2\9,1\3\10,1\3\11,1\4\12,1\4\13,1\4\14,1\5\15,1\5\16,1\5\17
REM DIRNAME folder01,folder02,folder03,folder04,folder05,folder06,folder07,folder08,folder09,folder10,folder11,folder12,folder13,folder14,folder15,folder16,folder17
TITLE ""
FILE "P2Q_t2_0825-0839.mp3" MP3
  TRACK 01 AUDIO
    TITLE "7:cjc040_6307"
    INDEX 01 00:00:00
  TRACK 02 AUDIO
    TITLE "0:"
    INDEX 01 00:01:11
  TRACK 03 AUDIO
    TITLE "8:cjc040_6308"
    INDEX 01 00:01:66
  TRACK 04 AUDIO
    TITLE "0:"
    INDEX 01 00:04:48
  TRACK 05 AUDIO
    TITLE "9:cjc040_6309"
    INDEX 01 00:05:18
  TRACK 06 AUDIO
    TITLE "0:"
    INDEX 01 00:06:45
  TRACK 07 AUDIO
    TITLE "7:cjc040_6310"
    INDEX 01 00:08:24
  TRACK 08 AUDIO
    TITLE "0:"
    INDEX 01 00:09:28
  TRACK 09 AUDIO
    TITLE "8:cjc040_6311"
    INDEX 01 00:10:10
  TRACK 10 AUDIO
    TITLE "0:"
    INDEX 01 00:12:63
  TRACK 11 AUDIO
    TITLE "9:cjc040_6312"
    INDEX 01 00:13:41
  TRACK 12 AUDIO
    TITLE "0:"
    INDEX 01 00:14:47
  TRACK 13 AUDIO
    TITLE "7:cjc040_6313"
    INDEX 01 00:16:34
  TRACK 14 AUDIO
    TITLE "0:"
    INDEX 01 00:17:55
  TRACK 15 AUDIO
    TITLE "8:cjc040_6314"
    INDEX 01 00:18:35
  TRACK 16 AUDIO
    TITLE "0:"
    INDEX 01 00:21:70
  TRACK 17 AUDIO
    TITLE "9:cjc040_6315"
    INDEX 01 00:22:46
  TRACK 18 AUDIO
    TITLE "0:"
    INDEX 01 00:23:71
  TRACK 19 AUDIO
    TITLE "7:cjc040_6316"
    INDEX 01 00:25:56
  TRACK 20 AUDIO
    TITLE "0:"
    INDEX 01 00:26:73
  TRACK 21 AUDIO
    TITLE "8:cjc040_6317"
    INDEX 01 00:27:51
  TRACK 22 AUDIO
    TITLE "0:"
    INDEX 01 00:31:31
  TRACK 23 AUDIO
    TITLE "9:cjc040_6318"
    INDEX 01 00:32:09
  TRACK 24 AUDIO
    TITLE "0:"
    INDEX 01 00:33:28
  TRACK 25 AUDIO
    TITLE "7:cjc040_6319"
    INDEX 01 00:35:06
  TRACK 26 AUDIO
    TITLE "0:"
    INDEX 01 00:36:15
  TRACK 27 AUDIO
    TITLE "8:cjc040_6320"
    INDEX 01 00:36:68
  TRACK 28 AUDIO
    TITLE "0:"
    INDEX 01 00:38:33
  TRACK 29 AUDIO
    TITLE "9:cjc040_6321"
    INDEX 01 00:39:09
  TRACK 30 AUDIO
    TITLE "0:"
    INDEX 01 00:40:19
  TRACK 31 AUDIO
    TITLE "7:cjc040_6322"
    INDEX 01 00:42:04
  TRACK 32 AUDIO
    TITLE "0:"
    INDEX 01 00:43:27
  TRACK 33 AUDIO
    TITLE "8:cjc040_6323"
    INDEX 01 00:44:03
  TRACK 34 AUDIO
    TITLE "0:"
    INDEX 01 00:45:47
  TRACK 35 AUDIO
    TITLE "9:cjc040_6324"
    INDEX 01 00:46:23
  TRACK 36 AUDIO
    TITLE "0:"
    INDEX 01 00:47:52
  TRACK 37 AUDIO
    TITLE "7:cjc040_6325"
    INDEX 01 00:49:29
  TRACK 38 AUDIO
    TITLE "0:"
    INDEX 01 00:50:39
  TRACK 39 AUDIO
    TITLE "8:cjc040_6326"
    INDEX 01 00:51:15
  TRACK 40 AUDIO
    TITLE "0:"
    INDEX 01 00:54:15
  TRACK 41 AUDIO
    TITLE "9:cjc040_6327"
    INDEX 01 00:55:01
  TRACK 42 AUDIO
    TITLE "0:"
    INDEX 01 00:56:14
  TRACK 43 AUDIO
    TITLE "7:cjc040_6328"
    INDEX 01 00:57:74
  TRACK 44 AUDIO
    TITLE "0:"
    INDEX 01 00:59:18
  TRACK 45 AUDIO
    TITLE "8:cjc040_6329"
    INDEX 01 01:00:00
  TRACK 46 AUDIO
    TITLE "0:"
    INDEX 01 01:03:06
  TRACK 47 AUDIO
    TITLE "9:cjc040_6330"
    INDEX 01 01:03:59
  TRACK 48 AUDIO
    TITLE "0:"
    INDEX 01 01:05:05
  TRACK 49 AUDIO
    TITLE "7:cjc040_6331"
    INDEX 01 01:06:65
  TRACK 50 AUDIO
    TITLE "0:"
    INDEX 01 01:08:03
  TRACK 51 AUDIO
    TITLE "8:cjc040_6332"
    INDEX 01 01:08:58
  TRACK 52 AUDIO
    TITLE "0:"
    INDEX 01 01:13:28
  TRACK 53 AUDIO
    TITLE "9:cjc040_6333"
    INDEX 01 01:14:04
  TRACK 54 AUDIO
    TITLE "0:"
    INDEX 01 01:15:21
  TRACK 55 AUDIO
    TITLE "7:cjc040_6334"
    INDEX 01 01:17:04
  TRACK 56 AUDIO
    TITLE "0:"
    INDEX 01 01:18:21
  TRACK 57 AUDIO
    TITLE "8:cjc040_6335"
    INDEX 01 01:19:01
  TRACK 58 AUDIO
    TITLE "0:"
    INDEX 01 01:21:51
  TRACK 59 AUDIO
    TITLE "9:cjc040_6336"
    INDEX 01 01:22:33
  TRACK 60 AUDIO
    TITLE "0:"
    INDEX 01 01:23:50
  TRACK 61 AUDIO
    TITLE "7:cjc040_6337"
    INDEX 01 01:25:33
  TRACK 62 AUDIO
    TITLE "0:"
    INDEX 01 01:26:46
  TRACK 63 AUDIO
    TITLE "8:cjc040_6338"
    INDEX 01 01:27:24
  TRACK 64 AUDIO
    TITLE "0:"
    INDEX 01 01:28:37
  TRACK 65 AUDIO
    TITLE "9:cjc040_6339"
    INDEX 01 01:29:15
  TRACK 66 AUDIO
    TITLE "0:"
    INDEX 01 01:30:28
  TRACK 67 AUDIO
    TITLE "7:cjc040_6340"
    INDEX 01 01:32:10
  TRACK 68 AUDIO
    TITLE "0:"
    INDEX 01 01:33:25
  TRACK 69 AUDIO
    TITLE "8:cjc040_6341"
    INDEX 01 01:34:06
  TRACK 70 AUDIO
    TITLE "0:"
    INDEX 01 01:36:33
  TRACK 71 AUDIO
    TITLE "9:cjc040_6342"
    INDEX 01 01:37:11
  TRACK 72 AUDIO
    TITLE "0:"
    INDEX 01 01:38:26
  TRACK 73 AUDIO
    TITLE "7:cjc040_6343"
    INDEX 01 01:40:07
  TRACK 74 AUDIO
    TITLE "0:"
    INDEX 01 01:41:14
  TRACK 75 AUDIO
    TITLE "8:cjc040_6344"
    INDEX 01 01:41:67
  TRACK 76 AUDIO
    TITLE "0:"
    INDEX 01 01:45:14
  TRACK 77 AUDIO
    TITLE "9:cjc040_6345"
    INDEX 01 01:45:67
  TRACK 78 AUDIO
    TITLE "0:"
    INDEX 01 01:47:03
  TRACK 79 AUDIO
    TITLE "7:cjc040_6346"
    INDEX 01 01:48:56
  TRACK 80 AUDIO
    TITLE "0:"
    INDEX 01 01:49:71
  TRACK 81 AUDIO
    TITLE "8:cjc040_6347"
    INDEX 01 01:50:54
  TRACK 82 AUDIO
    TITLE "0:"
    INDEX 01 01:53:00
  TRACK 83 AUDIO
    TITLE "9:cjc040_6348"
    INDEX 01 01:53:53
  TRACK 84 AUDIO
    TITLE "0:"
    INDEX 01 01:54:64
  TRACK 85 AUDIO
    TITLE "7:cjc040_6349"
    INDEX 01 01:56:41
  TRACK 86 AUDIO
    TITLE "0:"
    INDEX 01 01:57:37
  TRACK 87 AUDIO
    TITLE "8:cjc040_6350"
    INDEX 01 01:58:19
  TRACK 88 AUDIO
    TITLE "0:"
    INDEX 01 02:00:72
  TRACK 89 AUDIO
    TITLE "9:cjc040_6351"
    INDEX 01 02:01:46
  TRACK 90 AUDIO
    TITLE "0:"
    INDEX 01 02:02:40
